{"title":"Babysitters Black Book 2015 HDRip x264-BUsTAnUT","uid":11721706,"size":1055343647,"categoryP":"video","categoryS":"movies","magnet":"?xt=urn:btih:6b934a1c47669f3b8bf50fd0c244b376beed40c7&amp;dn=Babysitters+Black+Book+2015+HDRip+x264-BUsTAnUT&amp;tr=udp%3A%2F%2Ftracker.openbittorrent.com%3A80&amp;tr=udp%3A%2F%2Fopen.demonii.com%3A1337&amp;tr=udp%3A%2F%2Ftracker.coppersurfer.tk%3A6969&amp;tr=udp%3A%2F%2Fexodus.desync.com%3A6969","seeders":20,"leechers":11,"uploader":"xxxlavalxxx","files":4,"time":1424872606,"description":"[img]http://extraimago.com/images/2015/02/25/okzEhp.jpg[/img]\n\n[url]http://www.imdb.com/title/tt4234734/[/url]\n\n\nFriends start a babysitting business to save up for college, but when the babysitting money just isn't cutting it, they start a prostitution business as well.\n\nDirector: Lee Friedlander\nWriters: Richard Kletter, Michele Samit\nStars: Spencer Locke, Ryan McPartlin, Perrey Reeves \nGenres: Drama\nCountry: USA\nLanguage: English\n\n\nSource: 1080i.HDTV.MPEG2.DD5.1-BiTHD\n &lt;a href=&quot;\nhttp://www.imdb.com/title/tt4234734/&quot; rel=&quot;nofollow&quot; target=&quot;_NEW&quot;&gt;\nhttp://www.imdb.com/title/tt4234734/&lt;/a&gt;\n\nFriends start a babysitting business to save up for college, but when the babysitting money just isn't cutting it, they start a prostitution business as well.\n\nSpencer Locke\t...\tAshley\nRyan McPartlin\t...\tMark\nPerrey Reeves\t...\tLinda\nSteffani Brass\t...\tGilli\n\nGeneral\nComplete name                            : Babysitters Black Book 2015 HDRip x264-BUsTAnUT.mp4\nFormat                                   : MPEG-4\nFormat profile                           : Base Media\nCodec ID                                 : isom\nFile size                                : 962 MiB\nDuration                                 : 1h 25mn\nOverall bit rate mode                    : Variable\nOverall bit rate                         : 1 568 Kbps\nEncoded date                             : UTC 2015-02-25 10:09:15\nTagged date                              : UTC 2015-02-25 10:09:15\n\nVideo\nID                                       : 1\nFormat                                   : AVC\nFormat/Info                              : Advanced Video Codec\nFormat profile                           : &lt;a class=&quot;__cf_email__&quot; href=&quot;/cdn-cgi/l/email-protection&quot; data-cfemail=&quot;561e3f313e161a627867&quot;&gt;[email&amp;#160;protected]&lt;/a&gt;&lt;script cf-hash='f9e31' type=&quot;text/javascript&quot;&gt;\n/* &lt;![CDATA[ */!function(){try{var t=&quot;currentScript&quot;in document?document.currentScript:function(){for(var t=document.getElementsByTagName(&quot;script&quot;),e=t.length;e--;)if(t[e].getAttribute(&quot;cf-hash&quot;))return t[e]}();if(t&amp;&amp;t.previousSibling){var e,r,n,i,c=t.previousSibling,a=c.getAttribute(&quot;data-cfemail&quot;);if(a){for(e=&quot;&quot;,r=parseInt(a.substr(0,2),16),n=2;a.length-n;n+=2)i=parseInt(a.substr(n,2),16)^r,e+=String.fromCharCode(i);e=document.createTextNode(e),c.parentNode.replaceChild(e,c)}}}catch(u){}}();/* ]]&gt; */&lt;/script&gt;\nFormat settings, CABAC                   : Yes\nFormat settings, ReFrames                : 3 frames\nCodec ID                                 : avc1\nCodec ID/Info                            : Advanced Video Coding\nDuration                                 : 1h 25mn\nBit rate mode                            : Variable\nBit rate                                 : 1 243 Kbps\nMaximum bit rate                         : 40.0 Mbps\nWidth                                    : 720 pixels\nHeight                                   : 400 pixels\nDisplay aspect ratio                     : 16:9\nFrame rate mode                          : Constant\nFrame rate                               : 23.976 fps\nColor space                              : YUV\nChroma subsampling                       : 4:2:0\nBit depth                                : 8 bits\nScan type                                : Progressive\nBits/(Pixel*Frame)                       : 0.180\nStream size                              : 763 MiB (79%)\nWriting library                          : x264 core 144 r2525 40bb568\n\nAudio\nID                                       : 2\nFormat                                   : AAC\nFormat/Info                              : Advanced Audio Codec\nFormat profile                           : LC\nCodec ID                                 : 40\nDuration                                 : 1h 25mn\nBit rate mode                            : Variable\nBit rate                                 : 320 Kbps\nMaximum bit rate                         : 355 Kbps\nChannel(s)                               : 6 channels\nChannel positions                        : Front: L C R, Side: L R, LFE\nSampling rate                            : 48.0 KHz\nCompression mode                         : Lossy\nStream size                              : 197 MiB (20%)\nLanguage                                 : English\nEncoded date                             : UTC 2015-02-25 09:52:41\nTagged date                              : UTC 2015-02-25 10:09:34\n\n &lt;a href=&quot;\nhttp://extraimago.com/images/2015/02/25/shot0002.png&quot; rel=&quot;nofollow&quot; target=&quot;_NEW&quot;&gt;\nhttp://extraimago.com/images/2015/02/25/shot0002.png&lt;/a&gt; &lt;a href=&quot;\nhttp://extraimago.com/images/2015/02/25/shot0007.png&quot; rel=&quot;nofollow&quot; target=&quot;_NEW&quot;&gt;\nhttp://extraimago.com/images/2015/02/25/shot0007.png&lt;/a&gt; &lt;a href=&quot;\nhttp://extraimago.com/images/2015/02/25/shot0016.png&quot; rel=&quot;nofollow&quot; target=&quot;_NEW&quot;&gt;\nhttp://extraimago.com/images/2015/02/25/shot0016.png&lt;/a&gt; &lt;a href=&quot;\nhttp://extraimago.com/images/2015/02/25/shot0023.png&quot; rel=&quot;nofollow&quot; target=&quot;_NEW&quot;&gt;\nhttp://extraimago.com/images/2015/02/25/shot0023.png&lt;/a&gt;","torrent":{"xt":"urn:btih:6b934a1c47669f3b8bf50fd0c244b376beed40c7","amp;dn":"Babysitters+Black+Book+2015+HDRip+x264-BUsTAnUT","amp;tr":["udp%3A%2F%2Ftracker.openbittorrent.com%3A80","udp%3A%2F%2Fopen.demonii.com%3A1337","udp%3A%2F%2Ftracker.coppersurfer.tk%3A6969","udp%3A%2F%2Fexodus.desync.com%3A6969"],"infoHash":"6b934a1c47669f3b8bf50fd0c244b376beed40c7","infoHashBuffer":{"type":"Buffer","data":[107,147,74,28,71,102,159,59,139,245,15,208,194,68,179,118,190,237,64,199]},"announce":[],"urlList":[]}}